<svg width="44" height="48" viewBox="0 0 44 48" fill="none" xmlns="http://www.w3.org/2000/svg">
<path d="M11.0264 7.87891C7.30321 11.6021 5.00006 16.7456 5 22.4268C5.00041 33.789 14.2119 43 25.5742 43C31.2553 42.9999 36.3991 40.6976 40.1221 36.9746L43.6553 40.5078C39.0273 45.1355 32.636 47.9999 25.5742 48L24.9141 47.9922C11.3143 47.6478 0.353275 36.6857 0.00878906 23.0859L0 22.4268C6.05615e-05 15.3649 2.86225 8.97078 7.49023 4.34277L11.0264 7.87891ZM25.5742 6.50293C25.5743 7.59574 25.9465 8.52506 26.6924 9.29004C27.4383 10.055 28.3446 10.4375 29.4102 10.4375C30.0138 10.4375 30.573 10.3096 31.0879 10.0547C31.6029 9.79969 32.0384 9.43548 32.3936 8.96191L33.2461 7.86914C35.5192 9.25348 37.3664 11.4122 38.7871 14.3447C40.2077 17.2772 40.918 20.3644 40.918 23.6064C40.918 27.978 39.426 31.6938 36.4424 34.7539C33.4589 37.8139 29.8363 39.3446 25.5742 39.3447C21.3119 39.3447 17.6887 37.814 14.7051 34.7539C11.7215 31.6938 10.2295 27.978 10.2295 23.6064C10.2295 19.5264 11.579 15.4006 14.2783 11.2295C16.9778 7.05827 20.7436 3.31512 25.5742 0V6.50293ZM22.75 28.8525C22.4303 29.2533 22.1815 29.6631 22.0039 30.082C21.8263 30.5009 21.7373 30.9656 21.7373 31.4756C21.7373 32.5684 22.1106 33.4977 22.8564 34.2627C23.6023 35.0276 24.5087 35.4102 25.5742 35.4102C26.6395 35.41 27.5453 35.0275 28.291 34.2627C29.0369 33.4977 29.4101 32.5684 29.4102 31.4756C29.4102 30.9656 29.3211 30.4918 29.1436 30.0547C28.966 29.6175 28.7171 29.2168 28.3975 28.8525L25.5742 25.5742L22.75 28.8525ZM21.8975 8.08789C20.6189 9.29 19.5 10.5196 18.541 11.7764C17.5821 13.033 16.7646 14.3166 16.0898 15.6279C15.415 16.9393 14.9087 18.2693 14.5713 19.6172C14.2339 20.9651 14.0654 22.295 14.0654 23.6064C14.0654 25.2821 14.4119 26.8759 15.1045 28.3877C15.7971 29.8994 16.7648 31.2386 18.0078 32.4043C17.9723 32.2224 17.9465 32.0403 17.9287 31.8584C17.911 31.6763 17.9014 31.4937 17.9014 31.3115C17.9014 30.3279 18.0794 29.4079 18.4346 28.5518C18.7898 27.6957 19.2693 26.9216 19.873 26.2295L25.5742 19.6719L31.2744 26.2295C31.8782 26.958 32.3577 27.7504 32.7129 28.6064C33.0681 29.4625 33.2461 30.3643 33.2461 31.3115C33.2461 31.4935 33.2375 31.6846 33.2197 31.8848C33.202 32.0851 33.1752 32.2769 33.1396 32.459C34.3827 31.4025 35.3504 30.0999 36.043 28.5518C36.7356 27.0035 37.082 25.355 37.082 23.6064C37.082 21.7487 36.7709 19.9184 36.1494 18.1152C35.5279 16.3121 34.631 14.6452 33.459 13.1152C32.8552 13.5159 32.2244 13.8254 31.5674 14.0439C30.9104 14.2624 30.1913 14.372 29.4102 14.3721C27.5633 14.3721 25.9381 13.7887 24.5352 12.623C23.1323 11.4574 22.2527 9.94562 21.8975 8.08789Z" fill="#207FDF"/>
</svg>
