<svg width="170" height="64" viewBox="0 0 170 64" fill="none" xmlns="http://www.w3.org/2000/svg">
<path d="M70.864 46.0342C70.924 45.9502 70.996 45.9082 71.08 45.9082H72.016C72.136 45.9082 72.196 45.9682 72.196 46.0882V58.3282C72.196 58.4482 72.136 58.5082 72.016 58.5082H71.098C70.978 58.5082 70.918 58.4482 70.918 58.3282V48.3202C70.918 48.2842 70.906 48.2602 70.882 48.2482C70.858 48.2362 70.84 48.2482 70.828 48.2842L67.894 52.7842C67.834 52.8682 67.762 52.9102 67.678 52.9102H67.21C67.126 52.9102 67.054 52.8742 66.994 52.8022L64.06 48.3382C64.048 48.3022 64.03 48.2902 64.006 48.3022C63.982 48.3142 63.97 48.3382 63.97 48.3742V58.3282C63.97 58.4482 63.91 58.5082 63.79 58.5082H62.872C62.752 58.5082 62.692 58.4482 62.692 58.3282V46.0882C62.692 45.9682 62.752 45.9082 62.872 45.9082H63.808C63.904 45.9082 63.976 45.9442 64.024 46.0162L67.408 51.1462C67.42 51.1582 67.438 51.1642 67.462 51.1642C67.486 51.1642 67.504 51.1582 67.516 51.1462L70.864 46.0342ZM79.3572 49.2562C80.4372 49.2562 81.2712 49.5322 81.8592 50.0842C82.4472 50.6362 82.7412 51.3682 82.7412 52.2802V58.3282C82.7412 58.4482 82.6812 58.5082 82.5612 58.5082H81.6432C81.5232 58.5082 81.4632 58.4482 81.4632 58.3282V57.5902C81.4632 57.5662 81.4512 57.5482 81.4272 57.5362C81.4152 57.5242 81.3972 57.5302 81.3732 57.5542C81.0732 57.9142 80.6832 58.1902 80.2032 58.3822C79.7232 58.5622 79.1892 58.6522 78.6012 58.6522C77.7492 58.6522 77.0352 58.4362 76.4592 58.0042C75.8832 57.5722 75.5952 56.9122 75.5952 56.0242C75.5952 55.1242 75.9192 54.4162 76.5672 53.9002C77.2272 53.3722 78.1392 53.1082 79.3032 53.1082H81.3912C81.4392 53.1082 81.4632 53.0842 81.4632 53.0362V52.3522C81.4632 51.7402 81.2892 51.2602 80.9412 50.9122C80.6052 50.5522 80.0772 50.3722 79.3572 50.3722C78.7812 50.3722 78.3132 50.4862 77.9532 50.7142C77.5932 50.9302 77.3712 51.2362 77.2872 51.6322C77.2512 51.7522 77.1792 51.8062 77.0712 51.7942L76.0992 51.6682C75.9672 51.6442 75.9132 51.5962 75.9372 51.5242C76.0332 50.8522 76.3932 50.3062 77.0172 49.8862C77.6412 49.4662 78.4212 49.2562 79.3572 49.2562ZM78.8532 57.5542C79.5612 57.5542 80.1732 57.3802 80.6892 57.0322C81.2052 56.6722 81.4632 56.1922 81.4632 55.5922V54.1882C81.4632 54.1402 81.4392 54.1162 81.3912 54.1162H79.5012C78.7092 54.1162 78.0732 54.2782 77.5932 54.6022C77.1132 54.9262 76.8732 55.3762 76.8732 55.9522C76.8732 56.4802 77.0532 56.8822 77.4132 57.1582C77.7852 57.4222 78.2652 57.5542 78.8532 57.5542ZM90.0805 49.2742C91.0405 49.2742 91.8025 49.5562 92.3665 50.1202C92.9425 50.6842 93.2305 51.4402 93.2305 52.3882V58.3282C93.2305 58.4482 93.1705 58.5082 93.0505 58.5082H92.1325C92.0125 58.5082 91.9525 58.4482 91.9525 58.3282V52.6402C91.9525 51.9802 91.7485 51.4402 91.3405 51.0202C90.9445 50.6002 90.4285 50.3902 89.7925 50.3902C89.1325 50.3902 88.5985 50.5942 88.1905 51.0022C87.7825 51.4102 87.5785 51.9442 87.5785 52.6042V58.3282C87.5785 58.4482 87.5185 58.5082 87.3985 58.5082H86.4805C86.3605 58.5082 86.3005 58.4482 86.3005 58.3282V49.5802C86.3005 49.4602 86.3605 49.4002 86.4805 49.4002H87.3985C87.5185 49.4002 87.5785 49.4602 87.5785 49.5802V50.3542C87.5785 50.3782 87.5845 50.3962 87.5965 50.4082C87.6205 50.4202 87.6385 50.4142 87.6505 50.3902C88.1785 49.6462 88.9885 49.2742 90.0805 49.2742ZM100.054 49.2562C101.134 49.2562 101.968 49.5322 102.556 50.0842C103.144 50.6362 103.438 51.3682 103.438 52.2802V58.3282C103.438 58.4482 103.378 58.5082 103.258 58.5082H102.34C102.22 58.5082 102.16 58.4482 102.16 58.3282V57.5902C102.16 57.5662 102.148 57.5482 102.124 57.5362C102.112 57.5242 102.094 57.5302 102.07 57.5542C101.77 57.9142 101.38 58.1902 100.9 58.3822C100.42 58.5622 99.8857 58.6522 99.2977 58.6522C98.4457 58.6522 97.7317 58.4362 97.1557 58.0042C96.5797 57.5722 96.2917 56.9122 96.2917 56.0242C96.2917 55.1242 96.6157 54.4162 97.2637 53.9002C97.9237 53.3722 98.8357 53.1082 99.9997 53.1082H102.088C102.136 53.1082 102.16 53.0842 102.16 53.0362V52.3522C102.16 51.7402 101.986 51.2602 101.638 50.9122C101.302 50.5522 100.774 50.3722 100.054 50.3722C99.4777 50.3722 99.0097 50.4862 98.6497 50.7142C98.2897 50.9302 98.0677 51.2362 97.9837 51.6322C97.9477 51.7522 97.8757 51.8062 97.7677 51.7942L96.7957 51.6682C96.6637 51.6442 96.6097 51.5962 96.6337 51.5242C96.7297 50.8522 97.0897 50.3062 97.7137 49.8862C98.3377 49.4662 99.1177 49.2562 100.054 49.2562ZM99.5497 57.5542C100.258 57.5542 100.87 57.3802 101.386 57.0322C101.902 56.6722 102.16 56.1922 102.16 55.5922V54.1882C102.16 54.1402 102.136 54.1162 102.088 54.1162H100.198C99.4057 54.1162 98.7697 54.2782 98.2897 54.6022C97.8097 54.9262 97.5697 55.3762 97.5697 55.9522C97.5697 56.4802 97.7497 56.8822 98.1097 57.1582C98.4817 57.4222 98.9617 57.5542 99.5497 57.5542ZM112.613 49.5802C112.613 49.4602 112.673 49.4002 112.793 49.4002H113.711C113.831 49.4002 113.891 49.4602 113.891 49.5802V58.2022C113.891 59.5462 113.501 60.5302 112.721 61.1542C111.953 61.7782 110.891 62.0902 109.535 62.0902C109.259 62.0902 109.049 62.0842 108.905 62.0722C108.785 62.0602 108.725 61.9942 108.725 61.8742L108.761 61.0462C108.761 60.9862 108.779 60.9382 108.815 60.9022C108.851 60.8782 108.893 60.8722 108.941 60.8842L109.427 60.9022C110.543 60.9022 111.353 60.6802 111.857 60.2362C112.361 59.8042 112.613 59.1142 112.613 58.1662V57.5002C112.613 57.4762 112.601 57.4642 112.577 57.4642C112.565 57.4522 112.547 57.4582 112.523 57.4822C111.971 58.2022 111.185 58.5622 110.165 58.5622C109.385 58.5622 108.689 58.3522 108.077 57.9322C107.477 57.5122 107.075 56.9182 106.871 56.1502C106.727 55.6582 106.655 54.9262 106.655 53.9542C106.655 53.4262 106.667 52.9822 106.691 52.6222C106.727 52.2622 106.793 51.9382 106.889 51.6502C107.105 50.9302 107.495 50.3542 108.059 49.9222C108.623 49.4782 109.301 49.2562 110.093 49.2562C111.161 49.2562 111.971 49.6102 112.523 50.3182C112.547 50.3422 112.565 50.3482 112.577 50.3362C112.601 50.3242 112.613 50.3062 112.613 50.2822V49.5802ZM112.523 55.7542C112.559 55.5742 112.583 55.3522 112.595 55.0882C112.607 54.8242 112.613 54.4402 112.613 53.9362C112.613 53.3242 112.607 52.9162 112.595 52.7122C112.583 52.4962 112.553 52.2982 112.505 52.1182C112.409 51.6142 112.169 51.2002 111.785 50.8762C111.413 50.5402 110.939 50.3722 110.363 50.3722C109.799 50.3722 109.319 50.5342 108.923 50.8582C108.539 51.1822 108.269 51.6022 108.113 52.1182C107.993 52.5022 107.933 53.1022 107.933 53.9182C107.933 54.7942 107.993 55.4002 108.113 55.7362C108.233 56.2402 108.491 56.6602 108.887 56.9962C109.295 57.3202 109.787 57.4822 110.363 57.4822C110.951 57.4822 111.431 57.3202 111.803 56.9962C112.187 56.6722 112.427 56.2582 112.523 55.7542ZM124.514 52.4242C124.562 52.7602 124.586 53.1802 124.586 53.6842V54.2602C124.586 54.3802 124.526 54.4402 124.406 54.4402H118.592C118.544 54.4402 118.52 54.4642 118.52 54.5122C118.544 55.1722 118.58 55.5982 118.628 55.7902C118.76 56.3302 119.042 56.7562 119.474 57.0682C119.906 57.3802 120.458 57.5362 121.13 57.5362C121.634 57.5362 122.078 57.4222 122.462 57.1942C122.846 56.9662 123.146 56.6422 123.362 56.2222C123.434 56.1142 123.518 56.0902 123.614 56.1502L124.316 56.5642C124.412 56.6242 124.436 56.7082 124.388 56.8162C124.088 57.3922 123.638 57.8482 123.038 58.1842C122.438 58.5082 121.748 58.6702 120.968 58.6702C120.116 58.6582 119.402 58.4542 118.826 58.0582C118.25 57.6622 117.836 57.1102 117.584 56.4022C117.368 55.8262 117.26 54.9982 117.26 53.9182C117.26 53.4142 117.266 53.0062 117.278 52.6942C117.302 52.3702 117.35 52.0822 117.422 51.8302C117.626 51.0502 118.034 50.4262 118.646 49.9582C119.27 49.4902 120.02 49.2562 120.896 49.2562C121.988 49.2562 122.828 49.5322 123.416 50.0842C124.004 50.6362 124.37 51.4162 124.514 52.4242ZM120.896 50.3722C120.308 50.3722 119.816 50.5282 119.42 50.8402C119.036 51.1402 118.784 51.5482 118.664 52.0642C118.592 52.3162 118.544 52.7242 118.52 53.2882C118.52 53.3362 118.544 53.3602 118.592 53.3602H123.254C123.302 53.3602 123.326 53.3362 123.326 53.2882C123.302 52.7482 123.266 52.3642 123.218 52.1362C123.086 51.5962 122.816 51.1702 122.408 50.8582C122.012 50.5342 121.508 50.3722 120.896 50.3722ZM137.244 49.2742C138.144 49.2742 138.852 49.5442 139.368 50.0842C139.896 50.6242 140.16 51.3622 140.16 52.2982V58.3282C140.16 58.4482 140.1 58.5082 139.98 58.5082H139.08C138.96 58.5082 138.9 58.4482 138.9 58.3282V52.5502C138.9 51.8902 138.708 51.3682 138.324 50.9842C137.952 50.5882 137.46 50.3902 136.848 50.3902C136.212 50.3902 135.696 50.5822 135.3 50.9662C134.916 51.3502 134.724 51.8662 134.724 52.5142V58.3282C134.724 58.4482 134.664 58.5082 134.544 58.5082H133.626C133.506 58.5082 133.446 58.4482 133.446 58.3282V52.5502C133.446 51.8902 133.26 51.3682 132.888 50.9842C132.516 50.5882 132.018 50.3902 131.394 50.3902C130.758 50.3902 130.248 50.5822 129.864 50.9662C129.492 51.3502 129.306 51.8662 129.306 52.5142V58.3282C129.306 58.4482 129.246 58.5082 129.126 58.5082H128.208C128.088 58.5082 128.028 58.4482 128.028 58.3282V49.5802C128.028 49.4602 128.088 49.4002 128.208 49.4002H129.126C129.246 49.4002 129.306 49.4602 129.306 49.5802V50.3002C129.306 50.3242 129.312 50.3422 129.324 50.3542C129.348 50.3542 129.372 50.3422 129.396 50.3182C129.66 49.9702 129.996 49.7122 130.404 49.5442C130.824 49.3642 131.286 49.2742 131.79 49.2742C132.414 49.2742 132.948 49.4002 133.392 49.6522C133.836 49.9042 134.172 50.2702 134.4 50.7502C134.424 50.8102 134.454 50.8102 134.49 50.7502C134.754 50.2582 135.126 49.8922 135.606 49.6522C136.086 49.4002 136.632 49.2742 137.244 49.2742ZM150.677 52.4242C150.725 52.7602 150.749 53.1802 150.749 53.6842V54.2602C150.749 54.3802 150.689 54.4402 150.569 54.4402H144.755C144.707 54.4402 144.683 54.4642 144.683 54.5122C144.707 55.1722 144.743 55.5982 144.791 55.7902C144.923 56.3302 145.205 56.7562 145.637 57.0682C146.069 57.3802 146.621 57.5362 147.293 57.5362C147.797 57.5362 148.241 57.4222 148.625 57.1942C149.009 56.9662 149.309 56.6422 149.525 56.2222C149.597 56.1142 149.681 56.0902 149.777 56.1502L150.479 56.5642C150.575 56.6242 150.599 56.7082 150.551 56.8162C150.251 57.3922 149.801 57.8482 149.201 58.1842C148.601 58.5082 147.911 58.6702 147.131 58.6702C146.279 58.6582 145.565 58.4542 144.989 58.0582C144.413 57.6622 143.999 57.1102 143.747 56.4022C143.531 55.8262 143.423 54.9982 143.423 53.9182C143.423 53.4142 143.429 53.0062 143.441 52.6942C143.465 52.3702 143.513 52.0822 143.585 51.8302C143.789 51.0502 144.197 50.4262 144.809 49.9582C145.433 49.4902 146.183 49.2562 147.059 49.2562C148.151 49.2562 148.991 49.5322 149.579 50.0842C150.167 50.6362 150.533 51.4162 150.677 52.4242ZM147.059 50.3722C146.471 50.3722 145.979 50.5282 145.583 50.8402C145.199 51.1402 144.947 51.5482 144.827 52.0642C144.755 52.3162 144.707 52.7242 144.683 53.2882C144.683 53.3362 144.707 53.3602 144.755 53.3602H149.417C149.465 53.3602 149.489 53.3362 149.489 53.2882C149.465 52.7482 149.429 52.3642 149.381 52.1362C149.249 51.5962 148.979 51.1702 148.571 50.8582C148.175 50.5342 147.671 50.3722 147.059 50.3722ZM157.971 49.2742C158.931 49.2742 159.693 49.5562 160.257 50.1202C160.833 50.6842 161.121 51.4402 161.121 52.3882V58.3282C161.121 58.4482 161.061 58.5082 160.941 58.5082H160.023C159.903 58.5082 159.843 58.4482 159.843 58.3282V52.6402C159.843 51.9802 159.639 51.4402 159.231 51.0202C158.835 50.6002 158.319 50.3902 157.683 50.3902C157.023 50.3902 156.489 50.5942 156.081 51.0022C155.673 51.4102 155.469 51.9442 155.469 52.6042V58.3282C155.469 58.4482 155.409 58.5082 155.289 58.5082H154.371C154.251 58.5082 154.191 58.4482 154.191 58.3282V49.5802C154.191 49.4602 154.251 49.4002 154.371 49.4002H155.289C155.409 49.4002 155.469 49.4602 155.469 49.5802V50.3542C155.469 50.3782 155.475 50.3962 155.487 50.4082C155.511 50.4202 155.529 50.4142 155.541 50.3902C156.069 49.6462 156.879 49.2742 157.971 49.2742ZM168.88 50.2822C168.88 50.4022 168.82 50.4622 168.7 50.4622H166.666C166.618 50.4622 166.594 50.4862 166.594 50.5342V55.8442C166.594 56.4202 166.72 56.8282 166.972 57.0682C167.236 57.2962 167.644 57.4102 168.196 57.4102H168.646C168.766 57.4102 168.826 57.4702 168.826 57.5902V58.3282C168.826 58.4482 168.766 58.5082 168.646 58.5082C168.502 58.5202 168.28 58.5262 167.98 58.5262C167.116 58.5262 166.462 58.3642 166.018 58.0402C165.574 57.7162 165.352 57.1162 165.352 56.2402V50.5342C165.352 50.4862 165.328 50.4622 165.28 50.4622H164.182C164.062 50.4622 164.002 50.4022 164.002 50.2822V49.5802C164.002 49.4602 164.062 49.4002 164.182 49.4002H165.28C165.328 49.4002 165.352 49.3762 165.352 49.3282V47.2402C165.352 47.1202 165.412 47.0602 165.532 47.0602H166.414C166.534 47.0602 166.594 47.1202 166.594 47.2402V49.3282C166.594 49.3762 166.618 49.4002 166.666 49.4002H168.7C168.82 49.4002 168.88 49.4602 168.88 49.5802V50.2822Z" fill="black" fill-opacity="0.8"/>
<path d="M65.9072 32C65.6938 32 65.5552 31.8933 65.4912 31.68L58.8992 10.048L58.8672 9.92C58.8672 9.70667 58.9845 9.6 59.2192 9.6H63.2512C63.4858 9.6 63.6352 9.70667 63.6992 9.92L67.9552 25.536C67.9765 25.6 68.0085 25.632 68.0512 25.632C68.0938 25.632 68.1258 25.6 68.1472 25.536L72.3392 9.92C72.4032 9.70667 72.5525 9.6 72.7872 9.6H76.7232C76.8512 9.6 76.9472 9.64267 77.0112 9.728C77.0752 9.81333 77.0858 9.92 77.0432 10.048L70.3552 31.68C70.2912 31.8933 70.1525 32 69.9392 32H65.9072ZM98.4259 13.088C98.4259 13.1947 98.3833 13.2907 98.2979 13.376C98.2339 13.44 98.1486 13.472 98.0419 13.472H87.5459C87.4393 13.472 87.3859 13.5253 87.3859 13.632V18.592C87.3859 18.6987 87.4393 18.752 87.5459 18.752H94.4259C94.5326 18.752 94.6179 18.7947 94.6819 18.88C94.7673 18.944 94.8099 19.0293 94.8099 19.136V22.24C94.8099 22.3467 94.7673 22.4427 94.6819 22.528C94.6179 22.592 94.5326 22.624 94.4259 22.624H87.5459C87.4393 22.624 87.3859 22.6773 87.3859 22.784V27.968C87.3859 28.0747 87.4393 28.128 87.5459 28.128H98.0419C98.1486 28.128 98.2339 28.1707 98.2979 28.256C98.3833 28.32 98.4259 28.4053 98.4259 28.512V31.616C98.4259 31.7227 98.3833 31.8187 98.2979 31.904C98.2339 31.968 98.1486 32 98.0419 32H83.2579C83.1513 32 83.0553 31.968 82.9699 31.904C82.9059 31.8187 82.8739 31.7227 82.8739 31.616V9.984C82.8739 9.87733 82.9059 9.792 82.9699 9.728C83.0553 9.64267 83.1513 9.6 83.2579 9.6H98.0419C98.1486 9.6 98.2339 9.64267 98.2979 9.728C98.3833 9.792 98.4259 9.87733 98.4259 9.984V13.088ZM112.441 32.256C110.735 32.256 109.241 31.9893 107.961 31.456C106.681 30.9013 105.689 30.1227 104.985 29.12C104.303 28.096 103.961 26.912 103.961 25.568V24.864C103.961 24.7573 103.993 24.672 104.057 24.608C104.143 24.5227 104.239 24.48 104.345 24.48H107.993C108.1 24.48 108.185 24.5227 108.249 24.608C108.335 24.672 108.377 24.7573 108.377 24.864V25.344C108.377 26.1973 108.772 26.9227 109.561 27.52C110.351 28.096 111.417 28.384 112.761 28.384C113.892 28.384 114.735 28.1493 115.289 27.68C115.844 27.1893 116.121 26.592 116.121 25.888C116.121 25.376 115.951 24.9493 115.609 24.608C115.268 24.2453 114.799 23.936 114.201 23.68C113.625 23.4027 112.697 23.0293 111.417 22.56C109.988 22.0693 108.772 21.568 107.769 21.056C106.788 20.544 105.956 19.8507 105.273 18.976C104.612 18.08 104.281 16.9813 104.281 15.68C104.281 14.4 104.612 13.28 105.273 12.32C105.935 11.36 106.852 10.624 108.025 10.112C109.199 9.6 110.553 9.344 112.089 9.344C113.711 9.344 115.151 9.632 116.409 10.208C117.689 10.784 118.681 11.5947 119.385 12.64C120.111 13.664 120.473 14.8587 120.473 16.224V16.704C120.473 16.8107 120.431 16.9067 120.345 16.992C120.281 17.056 120.196 17.088 120.089 17.088H116.409C116.303 17.088 116.207 17.056 116.121 16.992C116.057 16.9067 116.025 16.8107 116.025 16.704V16.448C116.025 15.552 115.652 14.7947 114.905 14.176C114.18 13.536 113.177 13.216 111.897 13.216C110.895 13.216 110.105 13.4293 109.529 13.856C108.975 14.2827 108.697 14.8693 108.697 15.616C108.697 16.1493 108.857 16.5973 109.177 16.96C109.519 17.3227 110.009 17.6533 110.649 17.952C111.311 18.2293 112.324 18.6133 113.689 19.104C115.204 19.6587 116.388 20.1493 117.241 20.576C118.116 21.0027 118.895 21.6427 119.577 22.496C120.281 23.328 120.633 24.416 120.633 25.76C120.633 27.7653 119.897 29.3547 118.425 30.528C116.953 31.68 114.959 32.256 112.441 32.256ZM142.199 9.6C142.305 9.6 142.391 9.64267 142.455 9.728C142.54 9.792 142.583 9.87733 142.583 9.984V13.12C142.583 13.2267 142.54 13.3227 142.455 13.408C142.391 13.472 142.305 13.504 142.199 13.504H136.471C136.364 13.504 136.311 13.5573 136.311 13.664V31.616C136.311 31.7227 136.268 31.8187 136.183 31.904C136.119 31.968 136.033 32 135.927 32H132.183C132.076 32 131.98 31.968 131.895 31.904C131.831 31.8187 131.799 31.7227 131.799 31.616V13.664C131.799 13.5573 131.745 13.504 131.639 13.504H126.071C125.964 13.504 125.868 13.472 125.783 13.408C125.719 13.3227 125.687 13.2267 125.687 13.12V9.984C125.687 9.87733 125.719 9.792 125.783 9.728C125.868 9.64267 125.964 9.6 126.071 9.6H142.199ZM160.839 32C160.626 32 160.487 31.8933 160.423 31.68L159.463 28.544C159.42 28.4587 159.367 28.416 159.303 28.416H151.431C151.367 28.416 151.314 28.4587 151.271 28.544L150.343 31.68C150.279 31.8933 150.14 32 149.927 32H145.863C145.735 32 145.639 31.968 145.575 31.904C145.511 31.8187 145.5 31.7013 145.543 31.552L152.455 9.92C152.519 9.70667 152.658 9.6 152.871 9.6H157.895C158.108 9.6 158.247 9.70667 158.311 9.92L165.223 31.552C165.244 31.5947 165.255 31.648 165.255 31.712C165.255 31.904 165.138 32 164.903 32H160.839ZM152.423 24.736C152.402 24.864 152.444 24.928 152.551 24.928H158.183C158.311 24.928 158.354 24.864 158.311 24.736L155.431 15.232C155.41 15.1467 155.378 15.1147 155.335 15.136C155.292 15.136 155.26 15.168 155.239 15.232L152.423 24.736Z" fill="#207FDF"/>
<path d="M11.0264 17.3871C7.30321 21.1103 5.00006 26.2538 5 31.935C5.00041 43.2972 14.2119 52.5082 25.5742 52.5082C31.2553 52.5081 36.3991 50.2058 40.1221 46.4828L43.6553 50.016C39.0273 54.6438 32.636 57.5081 25.5742 57.5082L24.9141 57.5004C11.3143 57.1561 0.353275 46.1939 0.00878906 32.5942L0 31.935C6.05615e-05 24.8731 2.86225 18.479 7.49023 13.851L11.0264 17.3871ZM25.5742 16.0112C25.5743 17.104 25.9465 18.0333 26.6924 18.7983C27.4383 19.5632 28.3446 19.9457 29.4102 19.9457C30.0138 19.9457 30.573 19.8178 31.0879 19.5629C31.6029 19.3079 32.0384 18.9437 32.3936 18.4701L33.2461 17.3774C35.5192 18.7617 37.3664 20.9205 38.7871 23.853C40.2077 26.7854 40.918 29.8726 40.918 33.1147C40.918 37.4863 39.426 41.202 36.4424 44.2621C33.4589 47.3221 29.8363 48.8529 25.5742 48.853C21.3119 48.853 17.6887 47.3222 14.7051 44.2621C11.7215 41.202 10.2295 37.4863 10.2295 33.1147C10.2295 29.0346 11.579 24.9089 14.2783 20.7377C16.9778 16.5665 20.7436 12.8234 25.5742 9.50823V16.0112ZM22.75 38.3608C22.4303 38.7615 22.1815 39.1713 22.0039 39.5903C21.8263 40.0092 21.7373 40.4739 21.7373 40.9838C21.7373 42.0766 22.1106 43.0059 22.8564 43.7709C23.6023 44.5359 24.5087 44.9184 25.5742 44.9184C26.6395 44.9183 27.5453 44.5357 28.291 43.7709C29.0369 43.0059 29.4101 42.0766 29.4102 40.9838C29.4102 40.4738 29.3211 40.0001 29.1436 39.5629C28.966 39.1258 28.7171 38.7251 28.3975 38.3608L25.5742 35.0825L22.75 38.3608ZM21.8975 17.5961C20.6189 18.7982 19.5 20.0279 18.541 21.2846C17.5821 22.5413 16.7646 23.8249 16.0898 25.1362C15.415 26.4476 14.9087 27.7776 14.5713 29.1254C14.2339 30.4733 14.0654 31.8032 14.0654 33.1147C14.0654 34.7904 14.4119 36.3842 15.1045 37.8959C15.7971 39.4077 16.7648 40.7468 18.0078 41.9125C17.9723 41.7306 17.9465 41.5486 17.9287 41.3666C17.911 41.1845 17.9014 41.0019 17.9014 40.8198C17.9014 39.8361 18.0794 38.9161 18.4346 38.06C18.7898 37.204 19.2693 36.4298 19.873 35.7377L25.5742 29.1801L31.2744 35.7377C31.8782 36.4663 32.3577 37.2586 32.7129 38.1147C33.0681 38.9708 33.2461 39.8726 33.2461 40.8198C33.2461 41.0017 33.2375 41.1928 33.2197 41.393C33.202 41.5933 33.1752 41.7851 33.1396 41.9672C34.3827 40.9108 35.3504 39.6082 36.043 38.06C36.7356 36.5118 37.082 34.8633 37.082 33.1147C37.082 31.2569 36.7709 29.4266 36.1494 27.6235C35.5279 25.8203 34.631 24.1534 33.459 22.6235C32.8552 23.0241 32.2244 23.3336 31.5674 23.5522C30.9104 23.7707 30.1913 23.8803 29.4102 23.8803C27.5633 23.8803 25.9381 23.2969 24.5352 22.1313C23.1323 20.9656 22.2527 19.4539 21.8975 17.5961Z" fill="#207FDF"/>
</svg>
