<svg width="170" height="64" viewBox="0 0 170 64" fill="none" xmlns="http://www.w3.org/2000/svg">
<path d="M66.526 59.144C65.686 59.144 64.948 58.982 64.312 58.658C63.676 58.322 63.178 57.854 62.818 57.254C62.47 56.654 62.296 55.964 62.296 55.184V50.216C62.296 49.436 62.47 48.746 62.818 48.146C63.178 47.546 63.676 47.084 64.312 46.76C64.948 46.424 65.686 46.256 66.526 46.256C67.354 46.256 68.086 46.418 68.722 46.742C69.37 47.066 69.868 47.522 70.216 48.11C70.564 48.686 70.738 49.34 70.738 50.072V50.306C70.738 50.426 70.678 50.486 70.558 50.486H69.64C69.52 50.486 69.46 50.426 69.46 50.306V50.09C69.46 49.286 69.19 48.632 68.65 48.128C68.122 47.624 67.414 47.372 66.526 47.372C65.638 47.372 64.924 47.63 64.384 48.146C63.844 48.662 63.574 49.34 63.574 50.18V55.22C63.574 56.06 63.85 56.738 64.402 57.254C64.954 57.77 65.68 58.028 66.58 58.028C67.456 58.028 68.152 57.788 68.668 57.308C69.196 56.828 69.46 56.186 69.46 55.382V53.744C69.46 53.696 69.436 53.672 69.388 53.672H66.742C66.622 53.672 66.562 53.612 66.562 53.492V52.736C66.562 52.616 66.622 52.556 66.742 52.556H70.558C70.678 52.556 70.738 52.616 70.738 52.736V55.058C70.738 56.342 70.354 57.344 69.586 58.064C68.83 58.784 67.81 59.144 66.526 59.144ZM81.3455 52.916C81.3935 53.252 81.4175 53.672 81.4175 54.176V54.752C81.4175 54.872 81.3575 54.932 81.2375 54.932H75.4235C75.3755 54.932 75.3515 54.956 75.3515 55.004C75.3755 55.664 75.4115 56.09 75.4595 56.282C75.5915 56.822 75.8735 57.248 76.3055 57.56C76.7375 57.872 77.2895 58.028 77.9615 58.028C78.4655 58.028 78.9095 57.914 79.2935 57.686C79.6775 57.458 79.9775 57.134 80.1935 56.714C80.2655 56.606 80.3495 56.582 80.4455 56.642L81.1475 57.056C81.2435 57.116 81.2675 57.2 81.2195 57.308C80.9195 57.884 80.4695 58.34 79.8695 58.676C79.2695 59 78.5795 59.162 77.7995 59.162C76.9475 59.15 76.2335 58.946 75.6575 58.55C75.0815 58.154 74.6675 57.602 74.4155 56.894C74.1995 56.318 74.0915 55.49 74.0915 54.41C74.0915 53.906 74.0975 53.498 74.1095 53.186C74.1335 52.862 74.1815 52.574 74.2535 52.322C74.4575 51.542 74.8655 50.918 75.4775 50.45C76.1015 49.982 76.8515 49.748 77.7275 49.748C78.8195 49.748 79.6595 50.024 80.2475 50.576C80.8355 51.128 81.2015 51.908 81.3455 52.916ZM77.7275 50.864C77.1395 50.864 76.6475 51.02 76.2515 51.332C75.8675 51.632 75.6155 52.04 75.4955 52.556C75.4235 52.808 75.3755 53.216 75.3515 53.78C75.3515 53.828 75.3755 53.852 75.4235 53.852H80.0855C80.1335 53.852 80.1575 53.828 80.1575 53.78C80.1335 53.24 80.0975 52.856 80.0495 52.628C79.9175 52.088 79.6475 51.662 79.2395 51.35C78.8435 51.026 78.3395 50.864 77.7275 50.864ZM87.6889 59.09C87.0169 59.09 86.4169 58.982 85.8889 58.766C85.3729 58.55 84.9709 58.262 84.6829 57.902C84.4069 57.542 84.2689 57.14 84.2689 56.696V56.48C84.2689 56.36 84.3289 56.3 84.4489 56.3H85.3129C85.4329 56.3 85.4929 56.36 85.4929 56.48V56.624C85.4929 57.02 85.6969 57.368 86.1049 57.668C86.5249 57.956 87.0469 58.1 87.6709 58.1C88.2949 58.1 88.7989 57.962 89.1829 57.686C89.5669 57.398 89.7589 57.038 89.7589 56.606C89.7589 56.306 89.6569 56.06 89.4529 55.868C89.2609 55.676 89.0269 55.526 88.7509 55.418C88.4869 55.31 88.0729 55.172 87.5089 55.004C86.8369 54.812 86.2849 54.62 85.8529 54.428C85.4209 54.236 85.0549 53.972 84.7549 53.636C84.4669 53.288 84.3229 52.85 84.3229 52.322C84.3229 51.554 84.6229 50.942 85.2229 50.486C85.8229 50.03 86.6149 49.802 87.5989 49.802C88.2589 49.802 88.8409 49.91 89.3449 50.126C89.8609 50.342 90.2569 50.642 90.5329 51.026C90.8089 51.398 90.9469 51.818 90.9469 52.286V52.34C90.9469 52.46 90.8869 52.52 90.7669 52.52H89.9209C89.8009 52.52 89.7409 52.46 89.7409 52.34V52.286C89.7409 51.878 89.5429 51.536 89.1469 51.26C88.7629 50.984 88.2409 50.846 87.5809 50.846C86.9689 50.846 86.4769 50.972 86.1049 51.224C85.7329 51.464 85.5469 51.8 85.5469 52.232C85.5469 52.64 85.7269 52.952 86.0869 53.168C86.4469 53.384 87.0049 53.6 87.7609 53.816C88.4569 54.02 89.0209 54.212 89.4529 54.392C89.8849 54.572 90.2569 54.836 90.5689 55.184C90.8809 55.52 91.0369 55.964 91.0369 56.516C91.0369 57.296 90.7309 57.92 90.1189 58.388C89.5069 58.856 88.6969 59.09 87.6889 59.09ZM98.3354 50.774C98.3354 50.894 98.2754 50.954 98.1554 50.954H96.1214C96.0734 50.954 96.0494 50.978 96.0494 51.026V56.336C96.0494 56.912 96.1754 57.32 96.4274 57.56C96.6914 57.788 97.0994 57.902 97.6514 57.902H98.1014C98.2214 57.902 98.2814 57.962 98.2814 58.082V58.82C98.2814 58.94 98.2214 59 98.1014 59C97.9574 59.012 97.7354 59.018 97.4354 59.018C96.5714 59.018 95.9174 58.856 95.4734 58.532C95.0294 58.208 94.8074 57.608 94.8074 56.732V51.026C94.8074 50.978 94.7834 50.954 94.7354 50.954H93.6374C93.5174 50.954 93.4574 50.894 93.4574 50.774V50.072C93.4574 49.952 93.5174 49.892 93.6374 49.892H94.7354C94.7834 49.892 94.8074 49.868 94.8074 49.82V47.732C94.8074 47.612 94.8674 47.552 94.9874 47.552H95.8694C95.9894 47.552 96.0494 47.612 96.0494 47.732V49.82C96.0494 49.868 96.0734 49.892 96.1214 49.892H98.1554C98.2754 49.892 98.3354 49.952 98.3354 50.072V50.774ZM104.856 49.748C105.936 49.748 106.77 50.024 107.358 50.576C107.946 51.128 108.24 51.86 108.24 52.772V58.82C108.24 58.94 108.18 59 108.06 59H107.142C107.022 59 106.962 58.94 106.962 58.82V58.082C106.962 58.058 106.95 58.04 106.926 58.028C106.914 58.016 106.896 58.022 106.872 58.046C106.572 58.406 106.182 58.682 105.702 58.874C105.222 59.054 104.688 59.144 104.1 59.144C103.248 59.144 102.534 58.928 101.958 58.496C101.382 58.064 101.094 57.404 101.094 56.516C101.094 55.616 101.418 54.908 102.066 54.392C102.726 53.864 103.638 53.6 104.802 53.6H106.89C106.938 53.6 106.962 53.576 106.962 53.528V52.844C106.962 52.232 106.788 51.752 106.44 51.404C106.104 51.044 105.576 50.864 104.856 50.864C104.28 50.864 103.812 50.978 103.452 51.206C103.092 51.422 102.87 51.728 102.786 52.124C102.75 52.244 102.678 52.298 102.57 52.286L101.598 52.16C101.466 52.136 101.412 52.088 101.436 52.016C101.532 51.344 101.892 50.798 102.516 50.378C103.14 49.958 103.92 49.748 104.856 49.748ZM104.352 58.046C105.06 58.046 105.672 57.872 106.188 57.524C106.704 57.164 106.962 56.684 106.962 56.084V54.68C106.962 54.632 106.938 54.608 106.89 54.608H105C104.208 54.608 103.572 54.77 103.092 55.094C102.612 55.418 102.372 55.868 102.372 56.444C102.372 56.972 102.552 57.374 102.912 57.65C103.284 57.914 103.764 58.046 104.352 58.046ZM105.99 48.146C105.762 48.146 105.564 48.11 105.396 48.038C105.228 47.966 105.054 47.87 104.874 47.75C104.658 47.618 104.49 47.528 104.37 47.48C104.25 47.432 104.118 47.408 103.974 47.408C103.758 47.408 103.572 47.444 103.416 47.516C103.272 47.576 103.128 47.69 102.984 47.858C102.912 47.966 102.828 47.978 102.732 47.894L102.408 47.57C102.324 47.486 102.312 47.402 102.372 47.318C102.768 46.73 103.284 46.436 103.92 46.436C104.112 46.436 104.28 46.466 104.424 46.526C104.58 46.586 104.718 46.652 104.838 46.724C104.97 46.784 105.054 46.826 105.09 46.85C105.138 46.874 105.222 46.922 105.342 46.994C105.474 47.066 105.588 47.12 105.684 47.156C105.792 47.192 105.894 47.21 105.99 47.21C106.386 47.21 106.704 47.042 106.944 46.706C107.016 46.586 107.1 46.574 107.196 46.67L107.52 46.976C107.604 47.06 107.61 47.15 107.538 47.246C107.37 47.534 107.142 47.756 106.854 47.912C106.578 48.068 106.29 48.146 105.99 48.146ZM115.133 59.144C114.269 59.144 113.525 58.922 112.901 58.478C112.277 58.034 111.845 57.422 111.605 56.642C111.437 56.09 111.353 55.352 111.353 54.428C111.353 53.504 111.437 52.772 111.605 52.232C111.833 51.464 112.259 50.858 112.883 50.414C113.507 49.97 114.263 49.748 115.151 49.748C116.003 49.748 116.735 49.97 117.347 50.414C117.971 50.858 118.397 51.458 118.625 52.214C118.793 52.73 118.877 53.468 118.877 54.428C118.877 55.4 118.793 56.138 118.625 56.642C118.397 57.422 117.971 58.034 117.347 58.478C116.735 58.922 115.997 59.144 115.133 59.144ZM115.133 58.028C115.709 58.028 116.201 57.872 116.609 57.56C117.017 57.236 117.293 56.804 117.437 56.264C117.545 55.832 117.599 55.226 117.599 54.446C117.599 53.654 117.551 53.048 117.455 52.628C117.311 52.088 117.029 51.662 116.609 51.35C116.201 51.026 115.703 50.864 115.115 50.864C114.527 50.864 114.029 51.026 113.621 51.35C113.213 51.662 112.937 52.088 112.793 52.628C112.697 53.048 112.649 53.654 112.649 54.446C112.649 55.238 112.697 55.844 112.793 56.264C112.925 56.804 113.195 57.236 113.603 57.56C114.023 57.872 114.533 58.028 115.133 58.028Z" fill="black" fill-opacity="0.8"/>
<path d="M65.9072 32C65.6938 32 65.5552 31.8933 65.4912 31.68L58.8992 10.048L58.8672 9.92C58.8672 9.70667 58.9845 9.6 59.2192 9.6H63.2512C63.4858 9.6 63.6352 9.70667 63.6992 9.92L67.9552 25.536C67.9765 25.6 68.0085 25.632 68.0512 25.632C68.0938 25.632 68.1258 25.6 68.1472 25.536L72.3392 9.92C72.4032 9.70667 72.5525 9.6 72.7872 9.6H76.7232C76.8512 9.6 76.9472 9.64267 77.0112 9.728C77.0752 9.81333 77.0858 9.92 77.0432 10.048L70.3552 31.68C70.2912 31.8933 70.1525 32 69.9392 32H65.9072ZM98.4259 13.088C98.4259 13.1947 98.3833 13.2907 98.2979 13.376C98.2339 13.44 98.1486 13.472 98.0419 13.472H87.5459C87.4393 13.472 87.3859 13.5253 87.3859 13.632V18.592C87.3859 18.6987 87.4393 18.752 87.5459 18.752H94.4259C94.5326 18.752 94.6179 18.7947 94.6819 18.88C94.7673 18.944 94.8099 19.0293 94.8099 19.136V22.24C94.8099 22.3467 94.7673 22.4427 94.6819 22.528C94.6179 22.592 94.5326 22.624 94.4259 22.624H87.5459C87.4393 22.624 87.3859 22.6773 87.3859 22.784V27.968C87.3859 28.0747 87.4393 28.128 87.5459 28.128H98.0419C98.1486 28.128 98.2339 28.1707 98.2979 28.256C98.3833 28.32 98.4259 28.4053 98.4259 28.512V31.616C98.4259 31.7227 98.3833 31.8187 98.2979 31.904C98.2339 31.968 98.1486 32 98.0419 32H83.2579C83.1513 32 83.0553 31.968 82.9699 31.904C82.9059 31.8187 82.8739 31.7227 82.8739 31.616V9.984C82.8739 9.87733 82.9059 9.792 82.9699 9.728C83.0553 9.64267 83.1513 9.6 83.2579 9.6H98.0419C98.1486 9.6 98.2339 9.64267 98.2979 9.728C98.3833 9.792 98.4259 9.87733 98.4259 9.984V13.088ZM112.441 32.256C110.735 32.256 109.241 31.9893 107.961 31.456C106.681 30.9013 105.689 30.1227 104.985 29.12C104.303 28.096 103.961 26.912 103.961 25.568V24.864C103.961 24.7573 103.993 24.672 104.057 24.608C104.143 24.5227 104.239 24.48 104.345 24.48H107.993C108.1 24.48 108.185 24.5227 108.249 24.608C108.335 24.672 108.377 24.7573 108.377 24.864V25.344C108.377 26.1973 108.772 26.9227 109.561 27.52C110.351 28.096 111.417 28.384 112.761 28.384C113.892 28.384 114.735 28.1493 115.289 27.68C115.844 27.1893 116.121 26.592 116.121 25.888C116.121 25.376 115.951 24.9493 115.609 24.608C115.268 24.2453 114.799 23.936 114.201 23.68C113.625 23.4027 112.697 23.0293 111.417 22.56C109.988 22.0693 108.772 21.568 107.769 21.056C106.788 20.544 105.956 19.8507 105.273 18.976C104.612 18.08 104.281 16.9813 104.281 15.68C104.281 14.4 104.612 13.28 105.273 12.32C105.935 11.36 106.852 10.624 108.025 10.112C109.199 9.6 110.553 9.344 112.089 9.344C113.711 9.344 115.151 9.632 116.409 10.208C117.689 10.784 118.681 11.5947 119.385 12.64C120.111 13.664 120.473 14.8587 120.473 16.224V16.704C120.473 16.8107 120.431 16.9067 120.345 16.992C120.281 17.056 120.196 17.088 120.089 17.088H116.409C116.303 17.088 116.207 17.056 116.121 16.992C116.057 16.9067 116.025 16.8107 116.025 16.704V16.448C116.025 15.552 115.652 14.7947 114.905 14.176C114.18 13.536 113.177 13.216 111.897 13.216C110.895 13.216 110.105 13.4293 109.529 13.856C108.975 14.2827 108.697 14.8693 108.697 15.616C108.697 16.1493 108.857 16.5973 109.177 16.96C109.519 17.3227 110.009 17.6533 110.649 17.952C111.311 18.2293 112.324 18.6133 113.689 19.104C115.204 19.6587 116.388 20.1493 117.241 20.576C118.116 21.0027 118.895 21.6427 119.577 22.496C120.281 23.328 120.633 24.416 120.633 25.76C120.633 27.7653 119.897 29.3547 118.425 30.528C116.953 31.68 114.959 32.256 112.441 32.256ZM142.199 9.6C142.305 9.6 142.391 9.64267 142.455 9.728C142.54 9.792 142.583 9.87733 142.583 9.984V13.12C142.583 13.2267 142.54 13.3227 142.455 13.408C142.391 13.472 142.305 13.504 142.199 13.504H136.471C136.364 13.504 136.311 13.5573 136.311 13.664V31.616C136.311 31.7227 136.268 31.8187 136.183 31.904C136.119 31.968 136.033 32 135.927 32H132.183C132.076 32 131.98 31.968 131.895 31.904C131.831 31.8187 131.799 31.7227 131.799 31.616V13.664C131.799 13.5573 131.745 13.504 131.639 13.504H126.071C125.964 13.504 125.868 13.472 125.783 13.408C125.719 13.3227 125.687 13.2267 125.687 13.12V9.984C125.687 9.87733 125.719 9.792 125.783 9.728C125.868 9.64267 125.964 9.6 126.071 9.6H142.199ZM160.839 32C160.626 32 160.487 31.8933 160.423 31.68L159.463 28.544C159.42 28.4587 159.367 28.416 159.303 28.416H151.431C151.367 28.416 151.314 28.4587 151.271 28.544L150.343 31.68C150.279 31.8933 150.14 32 149.927 32H145.863C145.735 32 145.639 31.968 145.575 31.904C145.511 31.8187 145.5 31.7013 145.543 31.552L152.455 9.92C152.519 9.70667 152.658 9.6 152.871 9.6H157.895C158.108 9.6 158.247 9.70667 158.311 9.92L165.223 31.552C165.244 31.5947 165.255 31.648 165.255 31.712C165.255 31.904 165.138 32 164.903 32H160.839ZM152.423 24.736C152.402 24.864 152.444 24.928 152.551 24.928H158.183C158.311 24.928 158.354 24.864 158.311 24.736L155.431 15.232C155.41 15.1467 155.378 15.1147 155.335 15.136C155.292 15.136 155.26 15.168 155.239 15.232L152.423 24.736Z" fill="#207FDF"/>
<path d="M11.0264 17.3871C7.30321 21.1103 5.00006 26.2538 5 31.935C5.00041 43.2972 14.2119 52.5082 25.5742 52.5082C31.2553 52.5081 36.3991 50.2058 40.1221 46.4828L43.6553 50.016C39.0273 54.6438 32.636 57.5081 25.5742 57.5082L24.9141 57.5004C11.3143 57.1561 0.353275 46.1939 0.00878906 32.5942L0 31.935C6.05615e-05 24.8731 2.86225 18.479 7.49023 13.851L11.0264 17.3871ZM25.5742 16.0112C25.5743 17.104 25.9465 18.0333 26.6924 18.7983C27.4383 19.5632 28.3446 19.9457 29.4102 19.9457C30.0138 19.9457 30.573 19.8178 31.0879 19.5629C31.6029 19.3079 32.0384 18.9437 32.3936 18.4701L33.2461 17.3774C35.5192 18.7617 37.3664 20.9205 38.7871 23.853C40.2077 26.7854 40.918 29.8726 40.918 33.1147C40.918 37.4863 39.426 41.202 36.4424 44.2621C33.4589 47.3221 29.8363 48.8529 25.5742 48.853C21.3119 48.853 17.6887 47.3222 14.7051 44.2621C11.7215 41.202 10.2295 37.4863 10.2295 33.1147C10.2295 29.0346 11.579 24.9089 14.2783 20.7377C16.9778 16.5665 20.7436 12.8234 25.5742 9.50823V16.0112ZM22.75 38.3608C22.4303 38.7615 22.1815 39.1713 22.0039 39.5903C21.8263 40.0092 21.7373 40.4739 21.7373 40.9838C21.7373 42.0766 22.1106 43.0059 22.8564 43.7709C23.6023 44.5359 24.5087 44.9184 25.5742 44.9184C26.6395 44.9183 27.5453 44.5357 28.291 43.7709C29.0369 43.0059 29.4101 42.0766 29.4102 40.9838C29.4102 40.4738 29.3211 40.0001 29.1436 39.5629C28.966 39.1258 28.7171 38.7251 28.3975 38.3608L25.5742 35.0825L22.75 38.3608ZM21.8975 17.5961C20.6189 18.7982 19.5 20.0279 18.541 21.2846C17.5821 22.5413 16.7646 23.8249 16.0898 25.1362C15.415 26.4476 14.9087 27.7776 14.5713 29.1254C14.2339 30.4733 14.0654 31.8032 14.0654 33.1147C14.0654 34.7904 14.4119 36.3842 15.1045 37.8959C15.7971 39.4077 16.7648 40.7468 18.0078 41.9125C17.9723 41.7306 17.9465 41.5486 17.9287 41.3666C17.911 41.1845 17.9014 41.0019 17.9014 40.8198C17.9014 39.8361 18.0794 38.9161 18.4346 38.06C18.7898 37.204 19.2693 36.4298 19.873 35.7377L25.5742 29.1801L31.2744 35.7377C31.8782 36.4663 32.3577 37.2586 32.7129 38.1147C33.0681 38.9708 33.2461 39.8726 33.2461 40.8198C33.2461 41.0017 33.2375 41.1928 33.2197 41.393C33.202 41.5933 33.1752 41.7851 33.1396 41.9672C34.3827 40.9108 35.3504 39.6082 36.043 38.06C36.7356 36.5118 37.082 34.8633 37.082 33.1147C37.082 31.2569 36.7709 29.4266 36.1494 27.6235C35.5279 25.8203 34.631 24.1534 33.459 22.6235C32.8552 23.0241 32.2244 23.3336 31.5674 23.5522C30.9104 23.7707 30.1913 23.8803 29.4102 23.8803C27.5633 23.8803 25.9381 23.2969 24.5352 22.1313C23.1323 20.9656 22.2527 19.4539 21.8975 17.5961Z" fill="#207FDF"/>
</svg>
